<?xml version="1.0"?>
<!DOCTYPE svg PUBLIC "-//W3C//DTD SVG 1.1//EN"
    "http://www.w3.org/Graphics/SVG/1.1/DTD/svg11.dtd">
<svg xmlns="http://www.w3.org/2000/svg" x="0px" y="0px" width="52" height="52" viewBox="0 0 192 192" style=" fill:#000000;">
    <g fill="none" fill-rule="nonzero" stroke="none" stroke-width="1" stroke-linecap="butt" stroke-linejoin="miter" stroke-miterlimit="10" stroke-dasharray="" stroke-dashoffset="0" font-family="none" font-weight="none" font-size="none" text-anchor="none" style="mix-blend-mode: normal">
        <path d="M0,192v-192h192v192z" fill="rgba(45, 45, 45, 0.98)"></path>
            <g fill="#ffffff">
                <g id="surface1">
                    <path d="M170.985,133.44c-4.14,9.195 -6.135,13.305 -11.46,21.42c-7.455,11.34 -17.97,25.5 -30.96,25.59c-11.565,0.105 -14.55,-7.545 -30.255,-7.41c-15.69,0.075 -18.96,7.56 -30.54,7.44c-13.005,-0.12 -22.95,-12.87 -30.405,-24.195c-20.85,-31.755 -23.055,-68.985 -10.17,-88.785c9.12,-14.04 23.535,-22.29 37.08,-22.29c13.8,0 22.47,7.575 33.87,7.575c11.07,0 17.805,-7.59 33.765,-7.59c12.06,0 24.81,6.57 33.93,17.91c-29.82,16.35 -24.975,58.935 5.145,70.335zM119.79,32.52c5.805,-7.455 10.215,-17.97 8.61,-28.68c-9.465,0.645 -20.535,6.69 -27,14.52c-5.865,7.14 -10.725,17.73 -8.835,27.975c10.335,0.33 21.03,-5.835 27.225,-13.815z"></path>
                </g>
            </g>
    </g>
</svg>