<?xml version="1.0"?>
<!DOCTYPE svg PUBLIC "-//W3C//DTD SVG 1.1//EN"
    "http://www.w3.org/Graphics/SVG/1.1/DTD/svg11.dtd">
<svg xmlns="http://www.w3.org/2000/svg" x="0px" y="0px"
width="52" height="52"
viewBox="0 0 192 192"
style=" fill:#000000;">
    <g fill="none" fill-rule="nonzero" stroke="none" stroke-width="1" stroke-linecap="butt" stroke-linejoin="miter" stroke-miterlimit="10" stroke-dasharray="" stroke-dashoffset="0" font-family="none" font-weight="none" font-size="none" text-anchor="none" style="mix-blend-mode: normal">
        <path d="M0,192v-192h192v192z" fill="rgba(45, 45, 45, 0.98)"></path>
            <g fill="#ffffff">
                <g id="surface1">
                    <path d="M80.64,11.52c-36.015,0 -65.28,29.265 -65.28,65.28c0,36.015 29.265,65.28 65.28,65.28c14.25,0 27.42,-4.59 38.16,-12.36l50.52,50.4l10.8,-10.8l-49.92,-50.04c9.81,-11.43 15.72,-26.265 15.72,-42.48c0,-36.015 -29.265,-65.28 -65.28,-65.28zM80.64,19.2c31.86,0 57.6,25.74 57.6,57.6c0,31.86 -25.74,57.6 -57.6,57.6c-31.86,0 -57.6,-25.74 -57.6,-57.6c0,-31.86 25.74,-57.6 57.6,-57.6z"></path>
                </g>
            </g>
    </g>
</svg>